<svg width="200" height="141" viewBox="0 0 200 141" fill="none" xmlns="http://www.w3.org/2000/svg">
<path d="M162 0H42C36.4772 0 32 4.47715 32 10V130C32 135.523 36.4772 140 42 140H162C167.523 140 172 135.523 172 130V10C172 4.47715 167.523 0 162 0Z" fill="url(#paint0_linear_4524_4680)"/>
<g filter="url(#filter0_d_4524_4680)">
<path d="M54 54H189C190.326 54 191.598 54.5268 192.536 55.4645C193.473 56.4021 194 57.6739 194 59V84C194 85.3261 193.473 86.5979 192.536 87.5355C191.598 88.4732 190.326 89 189 89H54C52.6739 89 51.4021 88.4732 50.4645 87.5355C49.5268 86.5979 49 85.3261 49 84V59C49 57.6739 49.5268 56.4021 50.4645 55.4645C51.4021 54.5268 52.6739 54 54 54V54Z" fill="white"/>
</g>
<path d="M128 62H102C100.343 62 99 63.3431 99 65C99 66.6569 100.343 68 102 68H128C129.657 68 131 66.6569 131 65C131 63.3431 129.657 62 128 62Z" fill="#F2F1FF"/>
<path d="M146 75H102C100.343 75 99 76.3431 99 78C99 79.6569 100.343 81 102 81H146C147.657 81 149 79.6569 149 78C149 76.3431 147.657 75 146 75Z" fill="#DEE9FC"/>
<path d="M79.5 81C84.7467 81 89 76.7467 89 71.5C89 66.2533 84.7467 62 79.5 62C74.2533 62 70 66.2533 70 71.5C70 76.7467 74.2533 81 79.5 81Z" fill="#6663FD"/>
<path d="M77.5593 74V68.9091H79.4237C79.7849 68.9091 80.084 68.9687 80.321 69.0881C80.558 69.2057 80.7353 69.3656 80.853 69.5678C80.9706 69.7683 81.0295 69.9946 81.0295 70.2464C81.0295 70.4586 80.9905 70.6375 80.9126 70.7834C80.8348 70.9276 80.7304 71.0436 80.5994 71.1314C80.4702 71.2176 80.3277 71.2805 80.1719 71.3203V71.37C80.3409 71.3783 80.5058 71.433 80.6665 71.5341C80.829 71.6335 80.9632 71.7752 81.0692 71.9592C81.1753 72.1431 81.2283 72.3668 81.2283 72.6303C81.2283 72.8905 81.167 73.1242 81.0444 73.3313C80.9234 73.5368 80.7362 73.7 80.4826 73.821C80.229 73.9403 79.9051 74 79.5107 74H77.5593ZM78.3274 73.3413H79.4361C79.804 73.3413 80.0675 73.27 80.2266 73.1275C80.3857 72.985 80.4652 72.8068 80.4652 72.593C80.4652 72.4323 80.4246 72.2848 80.3434 72.1506C80.2622 72.0163 80.1462 71.9094 79.9954 71.8299C79.8462 71.7504 79.6689 71.7106 79.4634 71.7106H78.3274V73.3413ZM78.3274 71.1115H79.3565C79.5289 71.1115 79.6838 71.0784 79.8214 71.0121C79.9606 70.9458 80.0708 70.853 80.152 70.7337C80.2348 70.6127 80.2763 70.4702 80.2763 70.3061C80.2763 70.0956 80.2025 69.9192 80.055 69.7766C79.9076 69.6341 79.6813 69.5629 79.3764 69.5629H78.3274V71.1115Z" fill="white"/>
<g filter="url(#filter1_d_4524_4680)">
<path d="M11 97H146C147.326 97 148.598 97.5268 149.536 98.4645C150.473 99.4021 151 100.674 151 102V127C151 128.326 150.473 129.598 149.536 130.536C148.598 131.473 147.326 132 146 132H11C9.67392 132 8.40215 131.473 7.46447 130.536C6.52678 129.598 6 128.326 6 127V102C6 100.674 6.52678 99.4021 7.46447 98.4645C8.40215 97.5268 9.67392 97 11 97V97Z" fill="white"/>
</g>
<path d="M85 105H59C57.3431 105 56 106.343 56 108C56 109.657 57.3431 111 59 111H85C86.6569 111 88 109.657 88 108C88 106.343 86.6569 105 85 105Z" fill="#F2F1FF"/>
<path d="M103 118H59C57.3431 118 56 119.343 56 121C56 122.657 57.3431 124 59 124H103C104.657 124 106 122.657 106 121C106 119.343 104.657 118 103 118Z" fill="#DEE9FC"/>
<path d="M23.5 124C28.7467 124 33 119.747 33 114.5C33 109.253 28.7467 105 23.5 105C18.2533 105 14 109.253 14 114.5C14 119.747 18.2533 124 23.5 124Z" fill="#6663FD"/>
<path d="M20.6165 112.909H21.3523L23.0824 117.135H23.142L24.8722 112.909H25.608V118H25.0312V114.132H24.9815L23.3906 118H22.8338L21.2429 114.132H21.1932V118H20.6165V112.909Z" fill="white"/>
<g filter="url(#filter2_d_4524_4680)">
<path d="M146 11H11C8.23858 11 6 13.2386 6 16V41C6 43.7614 8.23858 46 11 46H146C148.761 46 151 43.7614 151 41V16C151 13.2386 148.761 11 146 11Z" fill="white"/>
</g>
<path d="M83 19H57C55.3431 19 54 20.3431 54 22C54 23.6569 55.3431 25 57 25H83C84.6569 25 86 23.6569 86 22C86 20.3431 84.6569 19 83 19Z" fill="#F2F1FF"/>
<path d="M101 32H57C55.3431 32 54 33.3431 54 35C54 36.6569 55.3431 38 57 38H101C102.657 38 104 36.6569 104 35C104 33.3431 102.657 32 101 32Z" fill="#DEE9FC"/>
<path d="M36.5 38C41.7467 38 46 33.7467 46 28.5C46 23.2533 41.7467 19 36.5 19C31.2533 19 27 23.2533 27 28.5C27 33.7467 31.2533 38 36.5 38Z" fill="#6663FD"/>
<path d="M35.6815 31H34.0334V25.9091H35.7337C36.2325 25.9091 36.6609 26.011 37.0189 26.2148C37.3768 26.417 37.6511 26.7079 37.8417 27.0874C38.0339 27.4652 38.13 27.9184 38.13 28.4471C38.13 28.9774 38.0331 29.4331 37.8392 29.8143C37.6469 30.1954 37.3685 30.4888 37.004 30.6942C36.6394 30.8981 36.1986 31 35.6815 31ZM34.8015 30.3288H35.6392C36.027 30.3288 36.3494 30.2559 36.6062 30.1101C36.8631 29.9626 37.0553 29.7496 37.1829 29.4712C37.3105 29.1912 37.3743 28.8498 37.3743 28.4471C37.3743 28.0477 37.3105 27.7088 37.1829 27.4304C37.057 27.152 36.8689 26.9407 36.6187 26.7965C36.3684 26.6523 36.0577 26.5803 35.6865 26.5803H34.8015V30.3288Z" fill="white"/>
<defs>
<filter id="filter0_d_4524_4680" x="43" y="51" width="157" height="47" filterUnits="userSpaceOnUse" color-interpolation-filters="sRGB">
<feFlood flood-opacity="0" result="BackgroundImageFix"/>
<feColorMatrix in="SourceAlpha" type="matrix" values="0 0 0 0 0 0 0 0 0 0 0 0 0 0 0 0 0 0 127 0" result="hardAlpha"/>
<feOffset dy="3"/>
<feGaussianBlur stdDeviation="3"/>
<feColorMatrix type="matrix" values="0 0 0 0 0 0 0 0 0 0 0 0 0 0 0 0 0 0 0.161 0"/>
<feBlend mode="normal" in2="BackgroundImageFix" result="effect1_dropShadow_4524_4680"/>
<feBlend mode="normal" in="SourceGraphic" in2="effect1_dropShadow_4524_4680" result="shape"/>
</filter>
<filter id="filter1_d_4524_4680" x="0" y="94" width="157" height="47" filterUnits="userSpaceOnUse" color-interpolation-filters="sRGB">
<feFlood flood-opacity="0" result="BackgroundImageFix"/>
<feColorMatrix in="SourceAlpha" type="matrix" values="0 0 0 0 0 0 0 0 0 0 0 0 0 0 0 0 0 0 127 0" result="hardAlpha"/>
<feOffset dy="3"/>
<feGaussianBlur stdDeviation="3"/>
<feColorMatrix type="matrix" values="0 0 0 0 0 0 0 0 0 0 0 0 0 0 0 0 0 0 0.161 0"/>
<feBlend mode="normal" in2="BackgroundImageFix" result="effect1_dropShadow_4524_4680"/>
<feBlend mode="normal" in="SourceGraphic" in2="effect1_dropShadow_4524_4680" result="shape"/>
</filter>
<filter id="filter2_d_4524_4680" x="0" y="8" width="157" height="47" filterUnits="userSpaceOnUse" color-interpolation-filters="sRGB">
<feFlood flood-opacity="0" result="BackgroundImageFix"/>
<feColorMatrix in="SourceAlpha" type="matrix" values="0 0 0 0 0 0 0 0 0 0 0 0 0 0 0 0 0 0 127 0" result="hardAlpha"/>
<feOffset dy="3"/>
<feGaussianBlur stdDeviation="3"/>
<feColorMatrix type="matrix" values="0 0 0 0 0 0 0 0 0 0 0 0 0 0 0 0 0 0 0.161 0"/>
<feBlend mode="normal" in2="BackgroundImageFix" result="effect1_dropShadow_4524_4680"/>
<feBlend mode="normal" in="SourceGraphic" in2="effect1_dropShadow_4524_4680" result="shape"/>
</filter>
<linearGradient id="paint0_linear_4524_4680" x1="102" y1="0" x2="102" y2="140" gradientUnits="userSpaceOnUse">
<stop stop-color="#E3ECFA"/>
<stop offset="1" stop-color="#DAE7FF"/>
</linearGradient>
</defs>
</svg>
