<svg width="841" height="202" viewBox="0 0 841 202" fill="none" xmlns="http://www.w3.org/2000/svg">
<path d="M137.869 0H45.9563C20.5753 0 0 20.5542 0 45.9091V137.727C0 163.082 20.5753 183.636 45.9563 183.636H137.869C163.25 183.636 183.825 163.082 183.825 137.727V45.9091C183.825 20.5542 163.25 0 137.869 0Z" fill="url(#paint0_linear_4655_4614)"/>
<path d="M149.284 81.3252C150.506 81.142 151.622 80.5254 152.426 79.5884C153.23 78.6519 153.67 77.4569 153.666 76.2224V60.5426C153.663 58.4886 152.845 56.5196 151.392 55.067C149.938 53.6144 147.967 52.7977 145.911 52.7954H76.1146V54.0864C76.1178 54.4275 76.0534 54.7658 75.9248 55.0821C75.7965 55.3985 75.6067 55.6858 75.3664 55.9287C75.126 56.1711 74.8397 56.3635 74.5245 56.4948C74.2092 56.6261 73.871 56.6936 73.5295 56.6936C73.1881 56.6936 72.8498 56.6261 72.5346 56.4948C72.2193 56.3635 71.933 56.1711 71.6926 55.9287C71.4523 55.6858 71.2625 55.3985 71.1338 55.0821C71.0056 54.7658 70.9413 54.4275 70.9445 54.0864V52.7954H42.5091C40.453 52.7977 38.4817 53.6144 37.0279 55.067C35.5739 56.5196 34.7562 58.4886 34.7539 60.5426V76.2224C34.7493 77.4569 35.1894 78.6514 35.9938 79.5884C36.7983 80.5254 37.9133 81.1415 39.1351 81.3252C42.2219 81.7581 45.0482 83.2905 47.0936 85.6406C49.1387 87.9902 50.2651 90.9996 50.2651 94.1136C50.2651 97.2272 49.1387 100.236 47.0936 102.587C45.0482 104.936 42.2219 106.469 39.1351 106.902C37.9132 107.085 36.7981 107.702 35.9937 108.639C35.1892 109.576 34.7492 110.77 34.7539 112.005V127.685C34.7562 129.739 35.5739 131.708 37.0279 133.161C38.4817 134.613 40.453 135.43 42.5091 135.432H70.9445V134.141C70.9413 133.8 71.0056 133.462 71.1338 133.146C71.2625 132.829 71.4523 132.541 71.6926 132.299C71.933 132.057 72.2193 131.864 72.5346 131.733C72.8498 131.602 73.1881 131.534 73.5295 131.534C73.871 131.534 74.2092 131.602 74.5245 131.733C74.8397 131.864 75.126 132.057 75.3664 132.299C75.6067 132.541 75.7965 132.829 75.9248 133.146C76.0534 133.462 76.1178 133.8 76.1146 134.141V135.432H145.911C147.967 135.43 149.938 134.613 151.392 133.161C152.845 131.708 153.663 129.739 153.666 127.685V112.005C153.67 110.77 153.23 109.576 152.426 108.639C151.621 107.702 150.506 107.086 149.284 106.902C146.197 106.47 143.371 104.937 141.326 102.587C139.281 100.237 138.155 97.2281 138.155 94.1141C138.155 91 139.281 87.9912 141.326 85.6411C143.371 83.291 146.197 81.7585 149.284 81.3256V81.3252ZM76.1146 122.95C76.1178 123.292 76.0534 123.63 75.9248 123.946C75.7965 124.263 75.6067 124.55 75.3664 124.792C75.126 125.035 74.8397 125.228 74.5245 125.359C74.2092 125.49 73.871 125.558 73.5295 125.558C73.1881 125.558 72.8498 125.49 72.5346 125.359C72.2193 125.228 71.933 125.035 71.6926 124.792C71.4523 124.55 71.2625 124.263 71.1338 123.946C71.0056 123.63 70.9413 123.292 70.9445 122.95V116.925C70.9413 116.584 71.0056 116.245 71.1338 115.929C71.2625 115.613 71.4523 115.325 71.6926 115.083C71.933 114.84 72.2193 114.648 72.5346 114.517C72.8498 114.385 73.1881 114.317 73.5295 114.317C73.871 114.317 74.2092 114.385 74.5245 114.517C74.8397 114.648 75.126 114.84 75.3664 115.083C75.6067 115.325 75.7965 115.613 75.9248 115.929C76.0534 116.245 76.1178 116.584 76.1146 116.925V122.95ZM76.1146 105.735C76.1178 106.076 76.0534 106.414 75.9248 106.73C75.7965 107.047 75.6067 107.334 75.3664 107.576C75.126 107.819 74.8397 108.012 74.5245 108.143C74.2092 108.274 73.871 108.342 73.5295 108.342C73.1881 108.342 72.8498 108.274 72.5346 108.143C72.2193 108.012 71.933 107.819 71.6926 107.576C71.4523 107.334 71.2625 107.047 71.1338 106.73C71.0056 106.414 70.9413 106.076 70.9445 105.735V99.7085C70.9509 99.0282 71.2262 98.3776 71.7106 97.8988C72.1945 97.42 72.848 97.1509 73.5295 97.1509C74.2106 97.1509 74.8645 97.42 75.3485 97.8988C75.8324 98.3776 76.1077 99.0282 76.1146 99.7085V105.735ZM76.1146 88.5182C76.1178 88.8593 76.0534 89.1977 75.9248 89.514C75.7965 89.8303 75.6067 90.1177 75.3664 90.3601C75.126 90.6029 74.8397 90.7953 74.5245 90.9266C74.2092 91.0579 73.871 91.1254 73.5295 91.1254C73.1881 91.1254 72.8498 91.0579 72.5346 90.9266C72.2193 90.7953 71.933 90.6029 71.6926 90.3601C71.4523 90.1177 71.2625 89.8303 71.1338 89.514C71.0056 89.1977 70.9413 88.8593 70.9445 88.5182V82.4931C70.9413 82.1515 71.0056 81.8132 71.1338 81.4969C71.2625 81.181 71.4523 80.8931 71.6926 80.6507C71.933 80.4083 72.2193 80.216 72.5346 80.0842C72.8498 79.9529 73.1881 79.8855 73.5295 79.8855C73.871 79.8855 74.2092 79.9529 74.5245 80.0842C74.8397 80.216 75.126 80.4083 75.3664 80.6507C75.6067 80.8931 75.7965 81.181 75.9248 81.4969C76.0534 81.8132 76.1178 82.1515 76.1146 82.4931V88.5182ZM76.1146 71.3023C76.1178 71.6434 76.0534 71.9817 75.9248 72.2981C75.7965 72.6144 75.6067 72.9018 75.3664 73.1446C75.126 73.387 74.8397 73.5794 74.5245 73.7107C74.2092 73.842 73.871 73.9095 73.5295 73.9095C73.1881 73.9095 72.8498 73.842 72.5346 73.7107C72.2193 73.5794 71.933 73.387 71.6926 73.1446C71.4523 72.9018 71.2625 72.6144 71.1338 72.2981C71.0056 71.9817 70.9413 71.6434 70.9445 71.3023V65.2767C70.9413 64.9356 71.0056 64.5973 71.1338 64.2809C71.2625 63.9646 71.4523 63.6772 71.6926 63.4344C71.933 63.192 72.2193 62.9996 72.5346 62.8683C72.8498 62.737 73.1881 62.6695 73.5295 62.6695C73.871 62.6695 74.2092 62.737 74.5245 62.8683C74.8397 62.9996 75.126 63.192 75.3664 63.4344C75.6067 63.6772 75.7965 63.9646 75.9248 64.2809C76.0534 64.5973 76.1178 64.9356 76.1146 65.2767V71.3023Z" fill="#28293D"/>
<path d="M70.9445 122.95V116.925C70.9445 116.24 71.217 115.583 71.7014 115.099C72.1862 114.615 72.8438 114.343 73.5295 114.343V108.317C72.8438 108.317 72.1862 108.045 71.7014 107.56C71.217 107.076 70.9445 106.42 70.9445 105.735V99.7085C70.9445 99.0236 71.217 98.3666 71.7014 97.8823C72.1862 97.3984 72.8438 97.1262 73.5295 97.1262V91.1006C72.8438 91.1006 72.1862 90.8283 71.7014 90.344C71.217 89.8597 70.9445 89.2032 70.9445 88.5182V82.4931C70.9445 81.8081 71.217 81.1512 71.7014 80.6668C72.1862 80.1825 72.8438 79.9102 73.5295 79.9102V73.8847C72.8438 73.8847 72.1862 73.6124 71.7014 73.1281C71.217 72.6437 70.9445 71.9873 70.9445 71.3023V65.2767C70.9445 64.5918 71.217 63.9353 71.7014 63.4509C72.1862 62.9666 72.8438 62.6943 73.5295 62.6943V56.6688C72.8438 56.6688 72.1867 56.3965 71.7018 55.9126C71.217 55.4283 70.9445 54.7713 70.9445 54.0864V52.7954H42.5091C40.453 52.7977 38.4817 53.6144 37.0279 55.067C35.5739 56.5196 34.7562 58.4886 34.7539 60.5426V76.2224C34.7493 77.4569 35.1894 78.6514 35.9938 79.5884C36.7983 80.5254 37.9133 81.1415 39.1351 81.3252C42.2219 81.7581 45.0482 83.2905 47.0936 85.6406C49.1387 87.9902 50.2651 90.9996 50.2651 94.1136C50.2651 97.2272 49.1387 100.236 47.0936 102.587C45.0482 104.936 42.2219 106.469 39.1351 106.902C37.9132 107.085 36.7981 107.702 35.9937 108.639C35.1892 109.576 34.7492 110.77 34.7539 112.005V127.685C34.7562 129.739 35.5739 131.708 37.0279 133.161C38.4817 134.613 40.453 135.43 42.5091 135.432H70.9445V134.141C70.9445 133.456 71.217 132.799 71.7014 132.315C72.1862 131.831 72.8438 131.559 73.5295 131.559V125.533C73.1899 125.533 72.854 125.466 72.5401 125.336C72.2267 125.206 71.9417 125.016 71.7014 124.777C71.4615 124.537 71.2712 124.252 71.1412 123.938C71.0111 123.625 70.9445 123.289 70.9445 122.95Z" fill="#28293D"/>
<path d="M113.813 64.9385H110.264V73.8037H113.813V64.9385Z" fill="url(#paint1_linear_4655_4614)"/>
<path d="M229.884 9.5083L255.374 84.0241H256.402L281.893 9.5083H296.829L263.87 101H247.906L214.947 9.5083H229.884ZM331.028 102.385C324.588 102.385 318.969 100.91 314.169 97.9621C309.369 95.0138 305.642 90.8889 302.989 85.5873C300.335 80.2862 299.009 74.0917 299.009 67.0033C299.009 59.8851 300.335 53.6608 302.989 48.3298C305.642 42.9987 309.369 38.8589 314.169 35.9104C318.969 32.962 324.588 31.4877 331.028 31.4877C337.468 31.4877 343.088 32.962 347.887 35.9104C352.687 38.8589 356.414 42.9987 359.067 48.3298C361.721 53.6608 363.047 59.8851 363.047 67.0033C363.047 74.0917 361.721 80.2862 359.067 85.5873C356.414 90.8889 352.687 95.0138 347.887 97.9621C343.088 100.91 337.468 102.385 331.028 102.385ZM331.073 91.1717C335.247 91.1717 338.705 90.0699 341.448 87.8658C344.191 85.6622 346.218 82.7286 347.53 79.065C348.871 75.4019 349.542 71.3665 349.542 66.9588C349.542 62.5805 348.871 58.5602 347.53 54.8966C346.218 51.2037 344.191 48.2403 341.448 46.0068C338.705 43.773 335.247 42.6561 331.073 42.6561C326.869 42.6561 323.381 43.773 320.609 46.0068C317.865 48.2403 315.824 51.2037 314.482 54.8966C313.17 58.5602 312.514 62.5805 312.514 66.9588C312.514 71.3665 313.17 75.4019 314.482 79.065C315.824 82.7286 317.865 85.6622 320.609 87.8658C323.381 90.0699 326.869 91.1717 331.073 91.1717ZM421.484 72.5427V32.3812H434.9V101H421.753V89.1168H421.037C419.457 92.7799 416.923 95.8329 413.435 98.2748C409.977 100.687 405.669 101.893 400.511 101.893C396.099 101.893 392.193 100.926 388.795 98.9896C385.426 97.0242 382.772 94.12 380.835 90.2783C378.927 86.4362 377.973 81.686 377.973 76.0272V32.3812H391.344V74.419C391.344 79.0949 392.64 82.8176 395.234 85.5873C397.828 88.3575 401.197 89.7421 405.341 89.7421C407.845 89.7421 410.335 89.1168 412.809 87.8658C415.313 86.6152 417.385 84.7238 419.025 82.1924C420.694 79.6609 421.514 76.4445 421.484 72.5427ZM481.802 102.385C475.152 102.385 469.426 100.881 464.628 97.8726C459.857 94.8348 456.191 90.6506 453.627 85.3197C451.063 79.9883 449.781 73.8828 449.781 67.0033C449.781 60.0343 451.093 53.8843 453.716 48.5529C456.34 43.1922 460.037 39.0078 464.807 35.9998C469.577 32.9918 475.198 31.4877 481.664 31.4877C486.884 31.4877 491.535 32.4557 495.621 34.3915C499.702 36.2976 502.997 38.978 505.501 42.4328C508.033 45.8875 509.541 49.9229 510.019 54.5395H497.004C496.287 51.3226 494.651 48.5529 492.087 46.2299C489.55 43.907 486.154 42.7455 481.889 42.7455C478.162 42.7455 474.899 43.7283 472.096 45.694C469.324 47.6297 467.16 50.3994 465.611 54.0033C464.062 57.5773 463.286 61.8064 463.286 66.6907C463.286 71.6939 464.049 76.0125 465.565 79.6458C467.086 83.2795 469.233 86.0937 472.008 88.0894C474.807 90.0846 478.102 91.0822 481.889 91.0822C484.426 91.0822 486.719 90.6208 488.778 89.6976C490.864 88.7445 492.606 87.3893 494.008 85.6323C495.441 83.8749 496.439 81.7603 497.004 79.2886H510.019C509.541 83.7262 508.093 87.6872 505.681 91.1717C503.268 94.6562 500.032 97.3961 495.975 99.3917C491.953 101.387 487.224 102.385 481.802 102.385ZM537.689 60.2574V101H524.316V9.5083H537.51V43.5496H538.36C539.969 39.8566 542.427 36.9231 545.736 34.7489C549.049 32.5748 553.369 31.4877 558.705 31.4877C563.415 31.4877 567.533 32.4557 571.049 34.3915C574.597 36.3274 577.34 39.2163 579.279 43.0582C581.246 46.8704 582.23 51.6357 582.23 57.3537V101H568.857V58.9619C568.857 53.9289 567.561 50.0275 564.969 47.2574C562.372 44.458 558.765 43.0582 554.146 43.0582C550.984 43.0582 548.153 43.7283 545.649 45.0685C543.176 46.4085 541.223 48.3743 539.789 50.9655C538.388 53.5267 537.689 56.6242 537.689 60.2574ZM629.675 102.385C622.91 102.385 617.079 100.94 612.193 98.0516C607.331 95.1327 603.577 91.0377 600.92 85.7664C598.296 80.4648 596.986 74.2551 596.986 67.1374C596.986 60.1087 598.296 53.9137 600.92 48.5529C603.577 43.1922 607.271 39.0078 612.014 35.9998C616.784 32.9918 622.359 31.4877 628.738 31.4877C632.612 31.4877 636.371 32.1281 640.006 33.4087C643.646 34.6893 646.909 36.6997 649.799 39.4397C652.69 42.1796 654.974 45.7387 656.642 50.1166C658.31 54.4651 659.147 59.7511 659.147 65.9759V70.7114H604.546V60.7041H646.045C646.045 57.1898 645.328 54.0776 643.899 51.3676C642.465 48.6278 640.452 46.4682 637.86 44.8898C635.296 43.3113 632.285 42.5221 628.825 42.5221C625.07 42.5221 621.789 43.4454 618.99 45.2919C616.215 47.1086 614.068 49.4913 612.547 52.4396C611.058 55.3585 610.314 58.5304 610.314 61.9552V69.773C610.314 74.3593 611.118 78.2612 612.726 81.4776C614.367 84.6939 616.647 87.151 619.569 88.8487C622.492 90.5166 625.907 91.3503 629.808 91.3503C632.345 91.3503 634.657 90.9931 636.743 90.2783C638.83 89.5337 640.631 88.4319 642.152 86.9724C643.673 85.513 644.836 83.711 645.64 81.5671L658.297 83.8451C657.286 87.5678 655.466 90.8292 652.842 93.6288C650.25 96.3985 646.982 98.5576 643.048 100.107C639.142 101.625 634.684 102.385 629.675 102.385ZM673.982 101V32.3812H686.904V43.2816H687.621C688.876 39.5886 691.082 36.6848 694.239 34.5702C697.428 32.4259 701.036 31.3537 705.062 31.3537C705.898 31.3537 706.882 31.3835 708.012 31.4431C709.175 31.5026 710.085 31.5771 710.742 31.6664V44.4431C710.204 44.2942 709.253 44.1304 707.879 43.9517C706.509 43.7432 705.135 43.639 703.766 43.639C700.604 43.639 697.787 44.3091 695.314 45.6493C692.87 46.9599 690.93 48.7912 689.501 51.144C688.067 53.467 687.355 56.1178 687.355 59.096V101H673.982ZM773.785 49.1337L761.666 51.2781C761.161 49.7296 760.356 48.2554 759.253 46.8557C758.178 45.4557 756.717 44.3091 754.869 43.4156C753.022 42.5221 750.71 42.0754 747.939 42.0754C744.152 42.0754 740.99 42.9242 738.458 44.6218C735.921 46.2896 734.658 48.4487 734.658 51.0995C734.658 53.3927 735.503 55.2391 737.204 56.6389C738.904 58.0387 741.648 59.1855 745.434 60.0789L756.344 62.5804C762.663 64.0399 767.374 66.2885 770.476 69.3263C773.578 72.3641 775.127 76.3105 775.127 81.1649C775.127 85.2747 773.936 88.9382 771.551 92.1546C769.194 95.3412 765.899 97.8432 761.666 99.6598C757.461 101.476 752.59 102.385 747.043 102.385C739.35 102.385 733.077 100.747 728.215 97.4709C723.357 94.165 720.374 89.474 719.271 83.3984L732.194 81.433C733.003 84.7982 734.658 87.3447 737.162 89.0723C739.662 90.7695 742.93 91.6184 746.956 91.6184C751.335 91.6184 754.837 90.7103 757.461 88.8932C760.085 87.0468 761.4 84.7982 761.4 82.1478C761.4 80.0034 760.591 78.2015 758.982 76.742C757.401 75.2826 754.975 74.1808 751.694 73.4361L740.067 70.89C733.656 69.4305 728.918 67.1075 725.848 63.921C722.806 60.734 721.284 56.6986 721.284 51.8143C721.284 47.7637 722.42 44.2198 724.685 41.1819C726.951 38.1441 730.08 35.7764 734.074 34.0788C738.068 32.3514 742.645 31.4877 747.801 31.4877C755.228 31.4877 761.069 33.096 765.333 36.3125C769.598 39.4992 772.415 43.773 773.785 49.1337Z" fill="url(#paint2_linear_4655_4614)"/>
<path d="M248.836 174.455V134.388H263.524C266.37 134.388 268.726 134.858 270.593 135.797C272.46 136.723 273.857 137.982 274.784 139.573C275.711 141.151 276.174 142.931 276.174 144.914C276.174 146.583 275.868 147.992 275.254 149.139C274.64 150.274 273.818 151.187 272.787 151.878C271.768 152.556 270.645 153.052 269.418 153.365V153.757C270.75 153.822 272.049 154.252 273.315 155.047C274.595 155.83 275.652 156.945 276.488 158.393C277.323 159.841 277.741 161.601 277.741 163.675C277.741 165.723 277.258 167.562 276.292 169.192C275.339 170.809 273.864 172.094 271.866 173.046C269.869 173.985 267.316 174.455 264.209 174.455H248.836ZM254.887 169.27H263.621C266.52 169.27 268.596 168.71 269.849 167.588C271.102 166.466 271.729 165.064 271.729 163.382C271.729 162.117 271.409 160.956 270.77 159.899C270.13 158.843 269.216 158.002 268.028 157.376C266.853 156.75 265.456 156.437 263.837 156.437H254.887V169.27ZM254.887 151.722H262.995C264.353 151.722 265.573 151.461 266.657 150.939C267.753 150.418 268.622 149.687 269.262 148.748C269.914 147.796 270.241 146.675 270.241 145.383C270.241 143.727 269.66 142.338 268.498 141.216C267.336 140.094 265.553 139.534 263.151 139.534H254.887V151.722ZM288.15 185.723C287.275 185.723 286.479 185.651 285.761 185.508C285.043 185.378 284.507 185.234 284.155 185.078L285.565 180.285C286.635 180.572 287.589 180.696 288.424 180.656C289.26 180.617 289.997 180.304 290.637 179.717C291.29 179.13 291.864 178.172 292.36 176.841L293.085 174.846L282.079 144.405H288.346L295.964 167.725H296.277L303.895 144.405H310.182L297.785 178.465C297.21 180.03 296.48 181.354 295.592 182.436C294.704 183.532 293.647 184.354 292.419 184.902C291.192 185.449 289.769 185.723 288.15 185.723ZM352.624 144.914C352.415 143.062 351.554 141.627 350.039 140.61C348.525 139.579 346.619 139.064 344.321 139.064C342.676 139.064 341.253 139.325 340.051 139.847C338.851 140.355 337.917 141.06 337.251 141.96C336.598 142.847 336.272 143.857 336.272 144.992C336.272 145.944 336.494 146.765 336.938 147.457C337.395 148.148 337.989 148.729 338.72 149.198C339.464 149.655 340.26 150.039 341.109 150.352C341.958 150.652 342.774 150.9 343.557 151.096L347.474 152.113C348.753 152.426 350.065 152.85 351.41 153.385C352.755 153.919 354.001 154.624 355.15 155.497C356.299 156.372 357.226 157.454 357.932 158.745C358.649 160.036 359.008 161.582 359.008 163.382C359.008 165.651 358.421 167.666 357.246 169.427C356.084 171.188 354.393 172.576 352.174 173.594C349.967 174.611 347.297 175.12 344.164 175.12C341.161 175.12 338.563 174.644 336.37 173.692C334.176 172.739 332.459 171.39 331.219 169.642C329.979 167.881 329.293 165.794 329.163 163.382H335.234C335.351 164.829 335.822 166.036 336.644 167.001C337.48 167.953 338.544 168.664 339.836 169.133C341.141 169.59 342.571 169.818 344.125 169.818C345.835 169.818 347.356 169.551 348.688 169.016C350.033 168.468 351.09 167.712 351.86 166.746C352.631 165.769 353.016 164.627 353.016 163.323C353.016 162.136 352.676 161.164 351.998 160.408C351.332 159.652 350.424 159.026 349.275 158.53C348.14 158.034 346.853 157.597 345.417 157.219L340.678 155.928C337.466 155.054 334.921 153.769 333.041 152.074C331.174 150.379 330.24 148.135 330.24 145.344C330.24 143.035 330.867 141.02 332.12 139.299C333.373 137.577 335.071 136.24 337.212 135.289C339.353 134.323 341.768 133.841 344.458 133.841C347.173 133.841 349.569 134.317 351.645 135.269C353.734 136.221 355.379 137.532 356.58 139.201C357.781 140.857 358.408 142.762 358.46 144.914H352.624ZM374.524 175.12C372.617 175.12 370.894 174.768 369.354 174.063C367.813 173.346 366.592 172.309 365.691 170.953C364.803 169.597 364.359 167.933 364.359 165.964C364.359 164.268 364.686 162.873 365.339 161.777C365.992 160.682 366.873 159.815 367.983 159.176C369.093 158.537 370.333 158.054 371.704 157.728C373.075 157.402 374.471 157.154 375.895 156.984C377.696 156.776 379.158 156.606 380.281 156.476C381.404 156.332 382.22 156.104 382.729 155.791C383.238 155.478 383.493 154.969 383.493 154.265V154.128C383.493 152.42 383.01 151.096 382.044 150.157C381.091 149.217 379.668 148.748 377.775 148.748C375.803 148.748 374.249 149.185 373.114 150.059C371.991 150.92 371.214 151.878 370.783 152.935L365.28 151.683C365.933 149.857 366.886 148.383 368.139 147.261C369.406 146.126 370.861 145.305 372.507 144.796C374.151 144.274 375.882 144.014 377.696 144.014C378.897 144.014 380.17 144.157 381.515 144.444C382.873 144.718 384.139 145.227 385.314 145.97C386.502 146.714 387.475 147.776 388.232 149.159C388.989 150.529 389.368 152.309 389.368 154.5V174.455H383.65V170.346H383.415C383.036 171.103 382.468 171.846 381.711 172.576C380.953 173.307 379.981 173.913 378.793 174.396C377.605 174.878 376.182 175.12 374.524 175.12ZM375.797 170.425C377.416 170.425 378.799 170.105 379.948 169.466C381.11 168.827 381.992 167.992 382.592 166.962C383.206 165.918 383.513 164.803 383.513 163.616V159.743C383.304 159.952 382.899 160.147 382.299 160.33C381.711 160.499 381.038 160.649 380.281 160.78C379.524 160.897 378.787 161.008 378.068 161.113C377.35 161.203 376.75 161.282 376.267 161.347C375.131 161.49 374.093 161.732 373.153 162.071C372.226 162.41 371.482 162.899 370.92 163.538C370.372 164.164 370.098 164.999 370.098 166.042C370.098 167.49 370.633 168.586 371.704 169.329C372.774 170.059 374.139 170.425 375.797 170.425ZM411.483 144.405V149.1H394.484V144.405H411.483ZM399.145 174.455V140.923C399.145 139.044 399.556 137.486 400.379 136.247C401.201 134.995 402.292 134.062 403.649 133.45C405.007 132.823 406.483 132.51 408.075 132.51C409.251 132.51 410.256 132.608 411.091 132.804C411.927 132.986 412.547 133.156 412.952 133.313L411.581 138.047C411.307 137.969 410.954 137.877 410.523 137.773C410.092 137.656 409.57 137.597 408.956 137.597C407.534 137.597 406.515 137.949 405.902 138.653C405.301 139.358 405 140.375 405 141.705V174.455H399.145ZM417.524 174.455V144.405H423.38V174.455H417.524ZM420.482 139.768C419.463 139.768 418.588 139.429 417.857 138.751C417.139 138.06 416.78 137.238 416.78 136.286C416.78 135.321 417.139 134.499 417.857 133.821C418.588 133.13 419.463 132.784 420.482 132.784C421.5 132.784 422.368 133.13 423.086 133.821C423.817 134.499 424.183 135.321 424.183 136.286C424.183 137.238 423.817 138.06 423.086 138.751C422.368 139.429 421.5 139.768 420.482 139.768ZM444.222 175.061C441.258 175.061 438.706 174.428 436.565 173.164C434.436 171.885 432.792 170.092 431.629 167.784C430.48 165.462 429.906 162.743 429.906 159.626C429.906 156.547 430.48 153.835 431.629 151.487C432.792 149.139 434.41 147.307 436.486 145.99C438.575 144.672 441.016 144.014 443.811 144.014C445.508 144.014 447.153 144.294 448.746 144.855C450.339 145.416 451.768 146.296 453.034 147.496C454.301 148.696 455.3 150.255 456.031 152.172C456.762 154.076 457.127 156.391 457.127 159.117V161.191H433.216V156.808H451.39C451.39 155.269 451.076 153.906 450.449 152.719C449.823 151.52 448.942 150.574 447.806 149.883C446.683 149.192 445.364 148.846 443.85 148.846C442.205 148.846 440.769 149.25 439.541 150.059C438.327 150.855 437.387 151.898 436.721 153.189C436.068 154.467 435.742 155.856 435.742 157.356V160.78C435.742 162.788 436.094 164.497 436.799 165.905C437.518 167.314 438.516 168.39 439.796 169.133C441.075 169.864 442.57 170.229 444.281 170.229C445.391 170.229 446.402 170.073 447.316 169.76C448.23 169.433 449.02 168.951 449.686 168.312C450.352 167.672 450.861 166.884 451.213 165.944L456.756 166.942C456.312 168.572 455.515 170.001 454.366 171.227C453.23 172.44 451.8 173.385 450.077 174.063C448.367 174.729 446.415 175.061 444.222 175.061ZM469.48 156.613V174.455H463.626V144.405H469.246V149.296H469.618C470.308 147.705 471.392 146.427 472.867 145.462C474.356 144.496 476.231 144.014 478.488 144.014C480.537 144.014 482.334 144.444 483.874 145.305C485.413 146.153 486.608 147.418 487.458 149.1C488.304 150.783 488.731 152.863 488.731 155.341V174.455H482.877V156.046C482.877 153.867 482.307 152.165 481.172 150.939C480.037 149.7 478.474 149.081 476.489 149.081C475.133 149.081 473.924 149.374 472.867 149.961C471.824 150.548 470.992 151.409 470.381 152.544C469.779 153.665 469.48 155.021 469.48 156.613ZM510.625 144.405V149.1H494.196V144.405H510.625ZM498.603 137.206H504.458V165.631C504.458 166.766 504.628 167.621 504.963 168.194C505.303 168.755 505.744 169.14 506.278 169.349C506.824 169.544 507.422 169.642 508.061 169.642C508.529 169.642 508.943 169.609 509.292 169.544C509.646 169.479 509.922 169.427 510.115 169.388L511.172 174.22C510.832 174.35 510.349 174.481 509.724 174.611C509.099 174.754 508.313 174.833 507.376 174.846C505.832 174.872 504.398 174.598 503.065 174.024C501.732 173.45 500.657 172.564 499.834 171.364C499.012 170.164 498.603 168.657 498.603 166.844V137.206Z" fill="#B3B4B7"/>
<path d="M767.572 123.955H600.218C595.503 123.955 591.684 127.715 591.684 132.353V182.741C591.684 187.379 595.503 191.138 600.218 191.138H767.572C772.287 191.138 776.111 187.379 776.111 182.741V132.353C776.111 127.715 772.287 123.955 767.572 123.955Z" fill="url(#paint3_linear_4655_4614)"/>
<path d="M624.646 176V139.636H639.206C641.881 139.636 644.112 140.033 645.899 140.826C647.687 141.619 649.03 142.72 649.93 144.129C650.83 145.525 651.279 147.135 651.279 148.958C651.279 150.379 650.995 151.627 650.427 152.705C649.859 153.77 649.078 154.646 648.083 155.332C647.101 156.007 645.976 156.487 644.71 156.771V157.126C646.095 157.185 647.391 157.576 648.598 158.298C649.818 159.02 650.806 160.032 651.563 161.334C652.321 162.624 652.7 164.163 652.7 165.95C652.7 167.88 652.22 169.602 651.262 171.117C650.315 172.621 648.912 173.81 647.054 174.686C645.195 175.562 642.905 176 640.182 176H624.646ZM632.334 169.714H638.602C640.744 169.714 642.307 169.306 643.289 168.489C644.272 167.661 644.763 166.56 644.763 165.187C644.763 164.181 644.52 163.293 644.035 162.523C643.55 161.754 642.857 161.15 641.958 160.712C641.07 160.274 640.01 160.055 638.779 160.055H632.334V169.714ZM632.334 154.853H638.034C639.087 154.853 640.022 154.67 640.839 154.303C641.668 153.924 642.319 153.391 642.792 152.705C643.277 152.018 643.52 151.195 643.52 150.237C643.52 148.923 643.053 147.863 642.117 147.058C641.194 146.253 639.88 145.851 638.176 145.851H632.334V154.853ZM657.703 176V139.636H682.205V145.975H665.391V154.64H680.945V160.979H665.391V169.661H682.276V176H657.703ZM686.933 145.975V139.636H716.798V145.975H705.665V176H698.066V145.975H686.933ZM723.541 176H715.302L727.855 139.636H737.763L750.298 176H742.06L732.951 147.946H732.667L723.541 176ZM723.026 161.707H742.486V167.708H723.026V161.707Z" fill="#D7E0FE"/>
<defs>
<linearGradient id="paint0_linear_4655_4614" x1="-63.1007" y1="37.875" x2="222.514" y2="35.7901" gradientUnits="userSpaceOnUse">
<stop offset="0.0885417" stop-color="#44BCF0"/>
<stop offset="0.567708" stop-color="#818CF8"/>
<stop offset="1" stop-color="#A099FF"/>
</linearGradient>
<linearGradient id="paint1_linear_4655_4614" x1="109.045" y1="66.767" x2="114.561" y2="66.7509" gradientUnits="userSpaceOnUse">
<stop offset="0.0885417" stop-color="#44BCF0"/>
<stop offset="0.567708" stop-color="#818CF8"/>
<stop offset="1" stop-color="#A099FF"/>
</linearGradient>
<linearGradient id="paint2_linear_4655_4614" x1="-15.2163" y1="28.1192" x2="925.179" y2="-17.1876" gradientUnits="userSpaceOnUse">
<stop offset="0.0885417" stop-color="#44BCF0"/>
<stop offset="0.567708" stop-color="#818CF8"/>
<stop offset="1" stop-color="#A099FF"/>
</linearGradient>
<linearGradient id="paint3_linear_4655_4614" x1="528.374" y1="137.811" x2="814.824" y2="132.077" gradientUnits="userSpaceOnUse">
<stop offset="0.0885417" stop-color="#44BCF0"/>
<stop offset="0.567708" stop-color="#818CF8"/>
<stop offset="1" stop-color="#A099FF"/>
</linearGradient>
</defs>
</svg>
