<svg width="25" height="30" viewBox="0 0 25 30" fill="none" xmlns="http://www.w3.org/2000/svg">
<g clip-path="url(#clip0_4156_4009)">
<path d="M23.2685 11.0077C22.8681 10.6091 22.3878 10.2941 21.8571 10.0822C21.3265 9.87017 20.7566 9.76565 20.1827 9.77503H9.18603V5.83577C9.17843 5.43878 9.25257 5.0443 9.40409 4.67538C9.55562 4.30647 9.78151 3.97051 10.0686 3.68716C10.3556 3.4038 10.698 3.17872 11.0759 3.02507C11.4537 2.87143 11.8594 2.79229 12.2691 2.79229C12.6789 2.79229 13.0845 2.87143 13.4624 3.02507C13.8402 3.17872 14.1826 3.4038 14.4697 3.68716C14.7567 3.97051 14.9826 4.30647 15.1341 4.67538C15.2857 5.0443 15.3598 5.43878 15.3522 5.83577V7.94767H18.2916V5.83577C18.3022 5.06287 18.1543 4.29563 17.8564 3.57859C17.5584 2.86155 17.1165 2.20899 16.5562 1.6588C15.9959 1.10862 15.3284 0.671758 14.5925 0.373587C13.8565 0.0754169 13.0668 -0.078125 12.2691 -0.078125C11.4714 -0.078125 10.6817 0.0754169 9.94574 0.373587C9.2098 0.671758 8.5423 1.10862 7.98201 1.6588C7.42172 2.20899 6.97979 2.86155 6.68187 3.57859C6.38396 4.29563 6.236 5.06287 6.24658 5.83577V12.6604H20.1827C20.3674 12.658 20.5507 12.691 20.7221 12.7577C20.8935 12.8243 21.0496 12.9232 21.1813 13.0487C21.3156 13.1694 21.4222 13.3163 21.4939 13.4797C21.5657 13.643 21.6011 13.8192 21.5979 13.9968V25.7817C21.5959 26.1448 21.4462 26.4925 21.1812 26.7492C20.9163 27.006 20.5574 27.1511 20.1827 27.153H4.3555C3.98095 27.1506 3.62246 27.0053 3.35761 26.7487C3.09276 26.492 2.94286 26.1446 2.94037 25.7817V13.9968C2.93649 13.8185 2.97161 13.6416 3.04341 13.4774C3.11522 13.3133 3.22207 13.1658 3.35695 13.0446C3.48865 12.9191 3.64471 12.8202 3.81611 12.7535C3.9875 12.6869 4.17084 12.6538 4.3555 12.6563V12.6563V9.77709C3.78159 9.76771 3.21177 9.87222 2.6811 10.0842C2.15043 10.2962 1.67013 10.6111 1.26977 11.0097C0.858491 11.3975 0.533469 11.8627 0.314709 12.3768C0.0959476 12.8908 -0.0119232 13.4428 -0.0022637 13.9988V25.7817C-0.0124888 26.3377 0.0951237 26.8899 0.313918 27.404C0.532712 27.9182 0.858035 28.3834 1.26977 28.7708C1.66975 29.1698 2.14998 29.4851 2.68074 29.6971C3.2115 29.9092 3.7815 30.0134 4.3555 30.0034H20.1827C20.7555 30.0057 21.323 29.8981 21.8526 29.6867C22.3822 29.4754 22.8634 29.1645 23.2683 28.772C23.6733 28.3795 23.994 27.9132 24.212 27.3999C24.43 26.8867 24.5409 26.3367 24.5384 25.7817V13.9968C24.5483 13.4409 24.4408 12.889 24.2224 12.375C24.004 11.8609 23.6794 11.3956 23.2685 11.0077V11.0077Z" fill="white"/>
<path d="M14.1624 24.3638L13.1448 22.0269C13.4277 21.8788 13.6647 21.66 13.8309 21.3932C13.9972 21.1265 14.0868 20.8214 14.0903 20.5098C14.0788 20.049 13.8819 19.6108 13.5415 19.2888C13.2011 18.9669 12.7443 18.7866 12.2687 18.7866C11.793 18.7866 11.3362 18.9669 10.9958 19.2888C10.6554 19.6108 10.4585 20.049 10.447 20.5098C10.4505 20.8214 10.5401 21.1265 10.7064 21.3932C10.8726 21.66 11.1096 21.8788 11.3925 22.0269L10.376 24.3638H14.1624Z" fill="white"/>
</g>
<defs>
<clipPath id="clip0_4156_4009">
<rect width="24.5385" height="30" fill="white"/>
</clipPath>
</defs>
</svg>
