<svg width="26" height="26" viewBox="0 0 26 26" fill="none" xmlns="http://www.w3.org/2000/svg">
<path fill-rule="evenodd" clip-rule="evenodd" d="M4.77971 1.00029L4.79978 1H20.8188C23.1023 1 25 2.78839 25 5.05079V15.0395C24.99 16.1468 24.5222 17.1988 23.7096 17.965C22.8989 18.7295 21.8113 19.148 20.6875 19.1363H18.9182V21.7601C19.0016 22.7419 18.5825 23.694 17.8092 24.3143C17.0294 24.9399 15.9866 25.1519 15.0187 24.8903C15.0176 24.89 15.0165 24.8897 15.0154 24.8894L4.53999 22.1483C4.53202 22.1462 4.52408 22.144 4.51619 22.1416C2.47608 21.5307 1.04571 19.7216 1.001 17.626L1.00068 17.6109L1.00084 4.85015C0.979428 3.83888 1.36717 2.92093 2.01148 2.23506C2.02117 2.2242 2.03118 2.21367 2.04149 2.20347C2.73048 1.48649 3.70319 1.03091 4.77971 1.00029ZM2.79838 3.50782C2.54298 3.89114 2.40115 4.34634 2.41241 4.82572L2.4128 4.84229L2.41261 17.603C2.44664 19.0502 3.43663 20.3395 4.90985 20.7858L15.379 23.5253L15.3852 23.527C15.9251 23.6735 16.5024 23.5528 16.9258 23.2131C17.3471 22.8751 17.5593 22.3681 17.5097 21.8607C17.5075 21.8379 17.5064 21.815 17.5064 21.7921V10.082C17.4706 8.62331 16.4852 7.32054 15.0094 6.8484L2.79838 3.50782ZM18.9182 17.7245V10.0737L18.918 10.058C18.8712 7.95971 17.4561 6.14121 15.4224 5.49829C15.4136 5.49551 15.4047 5.4929 15.3958 5.49047L4.34671 2.46775C4.49602 2.43597 4.65095 2.41686 4.8104 2.41177H20.8188C22.374 2.41177 23.5882 3.61851 23.5882 5.05079V15.0297C23.581 15.7429 23.2796 16.43 22.7411 16.9379C22.2008 17.4473 21.4666 17.7333 20.6993 17.7246L18.9182 17.7245Z" fill="white" stroke="white" stroke-width="1.3" stroke-linecap="round" stroke-linejoin="round"/>
<path fill-rule="evenodd" clip-rule="evenodd" d="M13.4338 13.543C12.8297 13.543 12.2935 14.021 12.2935 14.667C12.2935 15.3129 12.8297 15.791 13.4338 15.791C14.0378 15.791 14.5741 15.3129 14.5741 14.667C14.5741 14.021 14.0378 13.543 13.4338 13.543Z" fill="white" stroke="white" stroke-width="1.3" stroke-linecap="round" stroke-linejoin="round"/>
<path fill-rule="evenodd" clip-rule="evenodd" d="M17.5059 10.0677C17.5059 9.67785 17.8219 9.36182 18.2117 9.36182H24.2936C24.6834 9.36182 24.9995 9.67785 24.9995 10.0677C24.9995 10.4575 24.6834 10.7736 24.2936 10.7736H18.2117C17.8219 10.7736 17.5059 10.4575 17.5059 10.0677Z" fill="white" stroke="white" stroke-width="1.3" stroke-linecap="round" stroke-linejoin="round"/>
</svg>
