<svg width="48" height="48" viewBox="0 0 48 48" fill="none" xmlns="http://www.w3.org/2000/svg">
<rect width="48" height="48" rx="5" fill="url(#paint0_linear_209_141)"/>
<path d="M33.3125 21.5938H26.2812V14.5625C26.2812 13.6997 25.5815 13 24.7188 13H23.1562C22.2935 13 21.5938 13.6997 21.5938 14.5625V21.5938H14.5625C13.6997 21.5938 13 22.2935 13 23.1562V24.7188C13 25.5815 13.6997 26.2812 14.5625 26.2812H21.5938V33.3125C21.5938 34.1753 22.2935 34.875 23.1562 34.875H24.7188C25.5815 34.875 26.2812 34.1753 26.2812 33.3125V26.2812H33.3125C34.1753 26.2812 34.875 25.5815 34.875 24.7188V23.1562C34.875 22.2935 34.1753 21.5938 33.3125 21.5938Z" fill="white"/>
<defs>
<linearGradient id="paint0_linear_209_141" x1="-16.4768" y1="9.9" x2="58.1023" y2="9.35615" gradientUnits="userSpaceOnUse">
<stop offset="0.0885417" stop-color="#44BCF0"/>
<stop offset="0.567708" stop-color="#818CF8"/>
<stop offset="1" stop-color="#A099FF"/>
</linearGradient>
</defs>
</svg>
