<svg width="48" height="48" viewBox="0 0 48 48" fill="none" xmlns="http://www.w3.org/2000/svg">
<rect width="48" height="48" rx="5" fill="url(#paint0_linear_209_137)"/>
<path d="M30.1875 27.625C29.0836 27.625 28.069 28.0068 27.2681 28.6453L22.2639 25.5176C22.4121 24.8473 22.4121 24.1527 22.2639 23.4823L27.2681 20.3547C28.069 20.9932 29.0836 21.375 30.1875 21.375C32.7763 21.375 34.875 19.2763 34.875 16.6875C34.875 14.0987 32.7763 12 30.1875 12C27.5987 12 25.5 14.0987 25.5 16.6875C25.5 17.037 25.5386 17.3774 25.6111 17.7051L20.6069 20.8328C19.806 20.1943 18.7914 19.8125 17.6875 19.8125C15.0987 19.8125 13 21.9112 13 24.5C13 27.0888 15.0987 29.1875 17.6875 29.1875C18.7914 29.1875 19.806 28.8057 20.6069 28.1672L25.6111 31.2949C25.5372 31.629 25.4999 31.9703 25.5 32.3125C25.5 34.9013 27.5987 37 30.1875 37C32.7763 37 34.875 34.9013 34.875 32.3125C34.875 29.7237 32.7763 27.625 30.1875 27.625Z" fill="white"/>
<defs>
<linearGradient id="paint0_linear_209_137" x1="-16.4768" y1="9.9" x2="58.1023" y2="9.35615" gradientUnits="userSpaceOnUse">
<stop offset="0.0885417" stop-color="#44BCF0"/>
<stop offset="0.567708" stop-color="#818CF8"/>
<stop offset="1" stop-color="#A099FF"/>
</linearGradient>
</defs>
</svg>
