<svg width="1278" height="343" viewBox="0 0 1278 343" fill="none" xmlns="http://www.w3.org/2000/svg">
<g opacity="0.1">
<path d="M0 127.7H143.181V343M260.68 327.577V14.1888M260.68 71.1904H383.957V312.772M566.946 262.185H883.486V334.98M883.486 319.431V199.878H1002.27V324.493M1002.27 205.738V22.2086M1002.91 89.4514H1126.83V247.379H1279M681.234 22.2086V262.185H814.143V22.2086M681.234 71.5611H383.957V0M383.957 312.772V206.047H566.946V328.194M141.897 189.39H260.68" stroke="white" stroke-width="2"/>
<path d="M252.975 181.987H268.385V196.793H252.975V181.987ZM252.975 64.1582H268.385V78.964H252.975V64.1582ZM376.252 64.1582H391.662V78.964H376.252V64.1582ZM673.53 64.1582H688.939V78.964H673.53V64.1582ZM994.564 82.0485H1009.97V96.8542H994.564V82.0485ZM994.564 192.475H1009.97V207.281H994.564V192.475ZM875.781 192.475H891.191V207.281H875.781V192.475ZM875.781 254.782H891.191V269.588H875.781V254.782ZM806.438 254.782H821.848V269.588H806.438V254.782ZM673.53 254.782H688.939V269.588H673.53V254.782ZM559.242 254.782H574.651V269.588H559.242V254.782ZM559.242 198.644H574.651V213.45H559.242V198.644ZM376.252 198.644H391.662V213.45H376.252V198.644Z" fill="white"/>
</g>
</svg>
