<svg width="200" height="48" viewBox="0 0 200 48" fill="none" xmlns="http://www.w3.org/2000/svg">
<path d="M32.7869 0H10.929C4.89306 0 0 4.88417 0 10.9091V32.7273C0 38.7522 4.89306 43.6364 10.929 43.6364H32.7869C38.8228 43.6364 43.7158 38.7522 43.7158 32.7273V10.9091C43.7158 4.88417 38.8228 0 32.7869 0Z" fill="url(#paint0_linear_4655_4588)"/>
<path d="M35.5023 19.3248C35.7929 19.2812 36.0582 19.1347 36.2494 18.9121C36.4407 18.6895 36.5454 18.4056 36.5443 18.1122V14.3863C36.5438 13.8982 36.3492 13.4304 36.0035 13.0852C35.6578 12.74 35.189 12.546 34.7 12.5454H18.1017V12.8522C18.1025 12.9332 18.0872 13.0136 18.0566 13.0888C18.0261 13.164 17.9809 13.2322 17.9238 13.29C17.8666 13.3476 17.7985 13.3933 17.7235 13.4245C17.6486 13.4557 17.5681 13.4717 17.4869 13.4717C17.4057 13.4717 17.3253 13.4557 17.2503 13.4245C17.1753 13.3933 17.1073 13.3476 17.0501 13.29C16.9929 13.2322 16.9478 13.164 16.9172 13.0888C16.8867 13.0136 16.8714 12.9332 16.8722 12.8522V12.5454H10.1099C9.62093 12.546 9.15215 12.74 8.8064 13.0852C8.46064 13.4304 8.26617 13.8982 8.26563 14.3863V18.1122C8.26453 18.4056 8.3692 18.6894 8.5605 18.9121C8.7518 19.1347 9.01696 19.2811 9.30752 19.3248C10.0416 19.4276 10.7137 19.7918 11.2002 20.3502C11.6865 20.9085 11.9544 21.6236 11.9544 22.3636C11.9544 23.1034 11.6865 23.8185 11.2002 24.377C10.7137 24.9353 10.0416 25.2996 9.30752 25.4024C9.01693 25.446 8.75175 25.5925 8.56045 25.8151C8.36915 26.0378 8.26451 26.3216 8.26563 26.615V30.341C8.26617 30.829 8.46064 31.2969 8.8064 31.6421C9.15215 31.9873 9.62093 32.1813 10.1099 32.1819H16.8722V31.8751C16.8714 31.7941 16.8867 31.7137 16.9172 31.6385C16.9478 31.5633 16.9929 31.4949 17.0501 31.4373C17.1073 31.3797 17.1753 31.334 17.2503 31.3028C17.3253 31.2716 17.4057 31.2555 17.4869 31.2555C17.5681 31.2555 17.6486 31.2716 17.7235 31.3028C17.7985 31.334 17.8666 31.3797 17.9238 31.4373C17.9809 31.4949 18.0261 31.5633 18.0566 31.6385C18.0872 31.7137 18.1025 31.7941 18.1017 31.8751V32.1819H34.7C35.189 32.1813 35.6578 31.9873 36.0035 31.6421C36.3492 31.2969 36.5438 30.829 36.5443 30.341V26.615C36.5454 26.3216 36.4407 26.0378 36.2494 25.8151C36.0581 25.5926 35.7929 25.4461 35.5023 25.4025C34.7682 25.2997 34.0961 24.9354 33.6098 24.3771C33.1234 23.8186 32.8556 23.1037 32.8556 22.3637C32.8556 21.6237 33.1234 20.9088 33.6098 20.3503C34.0961 19.7919 34.7682 19.4277 35.5023 19.3249V19.3248ZM18.1017 29.2159C18.1025 29.297 18.0872 29.3774 18.0566 29.4525C18.0261 29.5277 17.9809 29.596 17.9238 29.6536C17.8666 29.7113 17.7985 29.757 17.7235 29.7882C17.6486 29.8194 17.5681 29.8354 17.4869 29.8354C17.4057 29.8354 17.3253 29.8194 17.2503 29.7882C17.1753 29.757 17.1073 29.7113 17.0501 29.6536C16.9929 29.596 16.9478 29.5277 16.9172 29.4525C16.8867 29.3774 16.8714 29.297 16.8722 29.2159V27.7841C16.8714 27.703 16.8867 27.6226 16.9172 27.5475C16.9478 27.4723 16.9929 27.4039 17.0501 27.3463C17.1073 27.2887 17.1753 27.243 17.2503 27.2118C17.3253 27.1806 17.4057 27.1645 17.4869 27.1645C17.5681 27.1645 17.6486 27.1806 17.7235 27.2118C17.7985 27.243 17.8666 27.2887 17.9238 27.3463C17.9809 27.4039 18.0261 27.4723 18.0566 27.5475C18.0872 27.6226 18.1025 27.703 18.1017 27.7841V29.2159ZM18.1017 25.125C18.1025 25.2061 18.0872 25.2865 18.0566 25.3616C18.0261 25.4368 17.9809 25.5051 17.9238 25.5627C17.8666 25.6204 17.7985 25.6661 17.7235 25.6973C17.6486 25.7285 17.5681 25.7445 17.4869 25.7445C17.4057 25.7445 17.3253 25.7285 17.2503 25.6973C17.1753 25.6661 17.1073 25.6204 17.0501 25.5627C16.9929 25.5051 16.9478 25.4368 16.9172 25.3616C16.8867 25.2865 16.8714 25.2061 16.8722 25.125V23.6931C16.8737 23.5314 16.9392 23.3768 17.0544 23.263C17.1694 23.1493 17.3249 23.0853 17.4869 23.0853C17.6489 23.0853 17.8044 23.1493 17.9195 23.263C18.0346 23.3768 18.1 23.5314 18.1017 23.6931V25.125ZM18.1017 21.034C18.1025 21.115 18.0872 21.1954 18.0566 21.2706C18.0261 21.3458 17.9809 21.4141 17.9238 21.4717C17.8666 21.5294 17.7985 21.5751 17.7235 21.6063C17.6486 21.6375 17.5681 21.6535 17.4869 21.6535C17.4057 21.6535 17.3253 21.6375 17.2503 21.6063C17.1753 21.5751 17.1073 21.5294 17.0501 21.4717C16.9929 21.4141 16.9478 21.3458 16.9172 21.2706C16.8867 21.1954 16.8714 21.115 16.8722 21.034V19.6023C16.8714 19.5211 16.8867 19.4407 16.9172 19.3656C16.9478 19.2905 16.9929 19.2221 17.0501 19.1645C17.1073 19.1069 17.1753 19.0612 17.2503 19.0299C17.3253 18.9987 17.4057 18.9826 17.4869 18.9826C17.5681 18.9826 17.6486 18.9987 17.7235 19.0299C17.7985 19.0612 17.8666 19.1069 17.9238 19.1645C17.9809 19.2221 18.0261 19.2905 18.0566 19.3656C18.0872 19.4407 18.1025 19.5211 18.1017 19.6023V21.034ZM18.1017 16.9431C18.1025 17.0241 18.0872 17.1045 18.0566 17.1797C18.0261 17.2549 17.9809 17.3232 17.9238 17.3809C17.8666 17.4385 17.7985 17.4842 17.7235 17.5154C17.6486 17.5466 17.5681 17.5626 17.4869 17.5626C17.4057 17.5626 17.3253 17.5466 17.2503 17.5154C17.1753 17.4842 17.1073 17.4385 17.0501 17.3809C16.9929 17.3232 16.9478 17.2549 16.9172 17.1797C16.8867 17.1045 16.8714 17.0241 16.8722 16.9431V15.5113C16.8714 15.4302 16.8867 15.3498 16.9172 15.2746C16.9478 15.1995 16.9929 15.1312 17.0501 15.0735C17.1073 15.0159 17.1753 14.9702 17.2503 14.939C17.3253 14.9078 17.4057 14.8917 17.4869 14.8917C17.5681 14.8917 17.6486 14.9078 17.7235 14.939C17.7985 14.9702 17.8666 15.0159 17.9238 15.0735C17.9809 15.1312 18.0261 15.1995 18.0566 15.2746C18.0872 15.3498 18.1025 15.4302 18.1017 15.5113V16.9431Z" fill="white"/>
<path d="M16.8722 29.2159V27.7841C16.8722 27.6213 16.937 27.4652 17.0522 27.3501C17.1675 27.2352 17.3239 27.1705 17.4869 27.1705V25.7386C17.3239 25.7386 17.1675 25.674 17.0522 25.5589C16.937 25.4438 16.8722 25.2878 16.8722 25.125V23.6931C16.8722 23.5303 16.937 23.3742 17.0522 23.2591C17.1675 23.1441 17.3239 23.0794 17.4869 23.0794V21.6476C17.3239 21.6476 17.1675 21.5829 17.0522 21.4678C16.937 21.3528 16.8722 21.1968 16.8722 21.034V19.6023C16.8722 19.4395 16.937 19.2834 17.0522 19.1683C17.1675 19.0532 17.3239 18.9885 17.4869 18.9885V17.5567C17.3239 17.5567 17.1675 17.492 17.0522 17.3769C16.937 17.2618 16.8722 17.1058 16.8722 16.9431V15.5113C16.8722 15.3485 16.937 15.1925 17.0522 15.0774C17.1675 14.9623 17.3239 14.8976 17.4869 14.8976V13.4658C17.3239 13.4658 17.1676 13.4011 17.0523 13.2861C16.937 13.171 16.8722 13.0149 16.8722 12.8522V12.5454H10.1099C9.62093 12.546 9.15215 12.74 8.8064 13.0852C8.46064 13.4304 8.26617 13.8982 8.26563 14.3863V18.1122C8.26453 18.4056 8.3692 18.6894 8.5605 18.9121C8.7518 19.1347 9.01696 19.2811 9.30752 19.3248C10.0416 19.4276 10.7137 19.7918 11.2002 20.3502C11.6865 20.9085 11.9544 21.6236 11.9544 22.3636C11.9544 23.1034 11.6865 23.8185 11.2002 24.377C10.7137 24.9353 10.0416 25.2996 9.30752 25.4024C9.01693 25.446 8.75175 25.5925 8.56045 25.8151C8.36915 26.0378 8.26451 26.3216 8.26563 26.615V30.341C8.26617 30.829 8.46064 31.2969 8.8064 31.6421C9.15215 31.9873 9.62093 32.1813 10.1099 32.1819H16.8722V31.8751C16.8722 31.7124 16.937 31.5562 17.0522 31.4412C17.1675 31.3262 17.3239 31.2615 17.4869 31.2615V29.8296C17.4062 29.8296 17.3263 29.8137 17.2516 29.7829C17.1771 29.752 17.1093 29.7068 17.0522 29.6499C16.9951 29.5928 16.9499 29.5252 16.919 29.4507C16.888 29.3763 16.8722 29.2964 16.8722 29.2159Z" fill="white"/>
<path d="M27.0668 15.4307H26.2227V17.5373H27.0668V15.4307Z" fill="url(#paint1_linear_4655_4588)"/>
<path d="M55.552 0L61.6139 17.7068H61.8585L67.9204 0H71.4725L63.6345 21.7406H59.8379L52 0H55.552ZM79.6055 22.0697C78.074 22.0697 76.7376 21.7193 75.5961 21.0188C74.4546 20.3182 73.5684 19.338 72.9374 18.0782C72.3063 16.8185 71.9909 15.3466 71.9909 13.6622C71.9909 11.9708 72.3063 10.4917 72.9374 9.22488C73.5684 7.95808 74.4546 6.9744 75.5961 6.27378C76.7376 5.57315 78.074 5.22284 79.6055 5.22284C81.1368 5.22284 82.4733 5.57315 83.6147 6.27378C84.7563 6.9744 85.6425 7.95808 86.2734 9.22488C86.9045 10.4917 87.22 11.9708 87.22 13.6622C87.22 15.3466 86.9045 16.8185 86.2734 18.0782C85.6425 19.338 84.7563 20.3182 83.6147 21.0188C82.4733 21.7193 81.1368 22.0697 79.6055 22.0697ZM79.6161 19.4052C80.6086 19.4052 81.431 19.1434 82.0834 18.6196C82.7356 18.096 83.2177 17.3989 83.5297 16.5284C83.8487 15.6579 84.0083 14.699 84.0083 13.6516C84.0083 12.6112 83.8487 11.6559 83.5297 10.7854C83.2177 9.90778 82.7356 9.20368 82.0834 8.67288C81.431 8.14208 80.6086 7.87668 79.6161 7.87668C78.6164 7.87668 77.7869 8.14208 77.1275 8.67288C76.4752 9.20368 75.9896 9.90778 75.6705 10.7854C75.3586 11.6559 75.2026 12.6112 75.2026 13.6516C75.2026 14.699 75.3586 15.6579 75.6705 16.5284C75.9896 17.3989 76.4752 18.096 77.1275 18.6196C77.7869 19.1434 78.6164 19.4052 79.6161 19.4052ZM101.117 14.9785V5.43515H104.308V21.7406H101.181V18.9169H101.011C100.635 19.7873 100.032 20.5128 99.2028 21.093C98.3804 21.6663 97.3558 21.9529 96.1293 21.9529C95.08 21.9529 94.1512 21.7229 93.343 21.2629C92.5418 20.7959 91.9108 20.1058 91.45 19.1929C90.9963 18.2799 90.7694 17.1512 90.7694 15.8065V5.43515H93.9492V15.4244C93.9492 16.5354 94.2576 17.4201 94.8744 18.0782C95.4912 18.7365 96.2925 19.0655 97.2779 19.0655C97.8734 19.0655 98.4655 18.9169 99.0539 18.6196C99.6495 18.3225 100.142 17.873 100.532 17.2715C100.929 16.67 101.124 15.9057 101.117 14.9785ZM115.461 22.0697C113.88 22.0697 112.518 21.7124 111.377 20.9975C110.243 20.2756 109.371 19.2814 108.761 18.0146C108.151 16.7477 107.847 15.2969 107.847 13.6622C107.847 12.0062 108.158 10.5448 108.782 9.27798C109.406 8.00408 110.285 7.00978 111.42 6.29501C112.554 5.58023 113.891 5.22284 115.429 5.22284C116.67 5.22284 117.776 5.45285 118.748 5.91285C119.718 6.36577 120.502 7.00271 121.097 7.82368C121.7 8.64458 122.058 9.60348 122.172 10.7005H119.077C118.906 9.93608 118.517 9.27798 117.907 8.72598C117.304 8.17398 116.496 7.89798 115.482 7.89798C114.596 7.89798 113.82 8.13148 113.153 8.59858C112.494 9.05858 111.979 9.71668 111.611 10.5731C111.243 11.4224 111.058 12.4273 111.058 13.5879C111.058 14.7768 111.24 15.803 111.6 16.6664C111.962 17.5298 112.472 18.1985 113.132 18.6728C113.798 19.1469 114.582 19.3839 115.482 19.3839C116.085 19.3839 116.631 19.2743 117.12 19.0549C117.617 18.8284 118.031 18.5064 118.364 18.0889C118.705 17.6713 118.942 17.1688 119.077 16.5815H122.172C122.058 17.636 121.714 18.5772 121.14 19.4052C120.566 20.2332 119.797 20.8842 118.832 21.3585C117.876 21.8326 116.751 22.0697 115.461 22.0697ZM128.752 12.0592V21.7406H125.572V0H128.709V8.08898H128.912C129.294 7.21148 129.879 6.5144 130.666 5.99778C131.454 5.48116 132.481 5.22284 133.75 5.22284C134.87 5.22284 135.849 5.45285 136.685 5.91285C137.529 6.37285 138.182 7.05933 138.643 7.97228C139.111 8.87808 139.344 10.0105 139.344 11.3692V21.7406H136.164V11.7514C136.164 10.5554 135.856 9.62838 135.24 8.97008C134.622 8.30488 133.764 7.97228 132.666 7.97228C131.914 7.97228 131.241 8.13148 130.645 8.44998C130.057 8.76838 129.593 9.23548 129.252 9.85118C128.918 10.4598 128.752 11.1959 128.752 12.0592ZM150.628 22.0697C149.019 22.0697 147.632 21.7264 146.47 21.04C145.314 20.3464 144.421 19.3733 143.789 18.1208C143.165 16.861 142.854 15.3854 142.854 13.6941C142.854 12.0239 143.165 10.5518 143.789 9.27798C144.421 8.00408 145.3 7.00978 146.428 6.29501C147.562 5.58023 148.888 5.22284 150.405 5.22284C151.326 5.22284 152.22 5.375 153.084 5.67931C153.95 5.98362 154.726 6.46132 155.413 7.1124C156.101 7.76348 156.644 8.60918 157.041 9.64948C157.437 10.6828 157.636 11.9389 157.636 13.4181V14.5433H144.652V12.1654H154.52C154.52 11.3303 154.35 10.5908 154.01 9.94678C153.669 9.29568 153.19 8.78258 152.574 8.40748C151.964 8.03238 151.248 7.84488 150.425 7.84488C149.532 7.84488 148.752 8.06428 148.087 8.50308C147.426 8.93478 146.916 9.50088 146.554 10.2015C146.2 10.8951 146.023 11.6488 146.023 12.4626V14.3204C146.023 15.4102 146.214 16.3373 146.597 17.1016C146.987 17.8659 147.529 18.4498 148.224 18.8532C148.919 19.2495 149.731 19.4476 150.659 19.4476C151.262 19.4476 151.812 19.3628 152.308 19.1929C152.805 19.016 153.233 18.7541 153.595 18.4073C153.956 18.0605 154.233 17.6324 154.424 17.1229L157.434 17.6642C157.194 18.5488 156.761 19.3238 156.137 19.989C155.52 20.6472 154.743 21.1602 153.808 21.5283C152.879 21.8892 151.819 22.0697 150.628 22.0697ZM161.164 21.7406V5.43515H164.237V8.02538H164.408C164.706 7.14779 165.231 6.45778 165.982 5.95531C166.74 5.44577 167.598 5.19099 168.555 5.19099C168.754 5.19099 168.988 5.19808 169.257 5.21222C169.534 5.22637 169.75 5.24407 169.906 5.2653V8.30138C169.778 8.26598 169.552 8.22698 169.225 8.18458C168.9 8.13508 168.573 8.11028 168.247 8.11028C167.495 8.11028 166.825 8.26948 166.237 8.58798C165.656 8.89938 165.195 9.33458 164.855 9.89368C164.514 10.4457 164.344 11.0756 164.344 11.7832V21.7406H161.164ZM184.899 9.41598L182.017 9.92548C181.896 9.55758 181.705 9.20728 181.443 8.87458C181.187 8.54198 180.84 8.26948 180.4 8.05718C179.961 7.84488 179.411 7.73872 178.752 7.73872C177.852 7.73872 177.1 7.94038 176.497 8.34378C175.894 8.74008 175.594 9.25318 175.594 9.88308C175.594 10.428 175.795 10.8668 176.199 11.1994C176.603 11.532 177.256 11.8045 178.156 12.0168L180.751 12.6112C182.254 12.958 183.374 13.4924 184.112 14.2142C184.849 14.9361 185.218 15.8738 185.218 17.0273C185.218 18.0039 184.935 18.8745 184.367 19.6388C183.807 20.396 183.023 20.9905 182.017 21.4222C181.017 21.8538 179.858 22.0697 178.539 22.0697C176.709 22.0697 175.218 21.6805 174.061 20.902C172.906 20.1165 172.197 19.0018 171.935 17.5581L175.008 17.091C175.2 17.8907 175.594 18.4958 176.189 18.9063C176.784 19.3096 177.561 19.5113 178.518 19.5113C179.56 19.5113 180.393 19.2956 181.017 18.8638C181.641 18.425 181.953 17.8907 181.953 17.2609C181.953 16.7513 181.761 16.3232 181.378 15.9764C181.002 15.6296 180.425 15.3677 179.645 15.1908L176.88 14.5858C175.355 14.239 174.229 13.687 173.499 12.9298C172.775 12.1725 172.413 11.2136 172.413 10.0529C172.413 9.09038 172.683 8.24828 173.222 7.5264C173.761 6.80455 174.505 6.24193 175.455 5.83854C176.405 5.42807 177.493 5.22284 178.719 5.22284C180.485 5.22284 181.875 5.605 182.889 6.36932C183.903 7.12655 184.573 8.14208 184.899 9.41598Z" fill="url(#paint2_linear_4655_4588)"/>
<path d="M59.1758 41.4543V31.9336H62.6687C63.3455 31.9336 63.9059 32.0452 64.3499 32.2683C64.7939 32.4884 65.1262 32.7875 65.3466 33.1656C65.567 33.5405 65.6772 33.9636 65.6772 34.4347C65.6772 34.8314 65.6043 35.1661 65.4583 35.4388C65.3124 35.7085 65.1168 35.9254 64.8715 36.0897C64.6293 36.2508 64.3623 36.3686 64.0705 36.4429V36.536C64.3872 36.5515 64.6961 36.6537 64.9973 36.8427C65.3016 37.0287 65.5531 37.2937 65.7517 37.6377C65.9504 37.9817 66.0498 38.4001 66.0498 38.8929C66.0498 39.3794 65.9349 39.8164 65.7052 40.2038C65.4785 40.5881 65.1277 40.8934 64.6526 41.1196C64.1776 41.3427 63.5706 41.4543 62.8316 41.4543H59.1758ZM60.6148 40.2224H62.692C63.3812 40.2224 63.8749 40.0892 64.1729 39.8227C64.471 39.556 64.62 39.2229 64.62 38.8232C64.62 38.5225 64.544 38.2467 64.3918 37.9956C64.2397 37.7446 64.0223 37.5447 63.7398 37.3959C63.4604 37.2472 63.1281 37.1728 62.7432 37.1728H60.6148V40.2224ZM60.6148 36.0525H62.5429C62.8658 36.0525 63.1561 35.9905 63.4138 35.8665C63.6746 35.7425 63.8811 35.569 64.0333 35.3459C64.1885 35.1196 64.2661 34.8531 64.2661 34.5463C64.2661 34.1527 64.1279 33.8227 63.8516 33.556C63.5752 33.2895 63.1514 33.1563 62.5802 33.1563H60.6148V36.0525ZM68.5252 44.132C68.3171 44.132 68.1277 44.1149 67.957 44.0809C67.7862 44.0499 67.6588 44.0158 67.575 43.9786L67.9104 42.8397C68.165 42.9079 68.3916 42.9373 68.5903 42.928C68.789 42.9187 68.9644 42.8443 69.1165 42.7048C69.2719 42.5654 69.4085 42.3376 69.5264 42.0215L69.6987 41.5473L67.0814 34.3138H68.5717L70.3833 39.8552H70.4579L72.2696 34.3138H73.7645L70.8164 42.4073C70.6798 42.7792 70.5061 43.0938 70.2949 43.351C70.0838 43.6114 69.8323 43.8067 69.5404 43.9368C69.2486 44.0669 68.9101 44.132 68.5252 44.132ZM83.8579 34.4347C83.8082 33.9946 83.6033 33.6537 83.2431 33.4119C82.883 33.1671 82.4297 33.0447 81.8832 33.0447C81.4921 33.0447 81.1536 33.1067 80.8679 33.2306C80.5823 33.3515 80.3603 33.5189 80.202 33.7328C80.0467 33.9435 79.9691 34.1836 79.9691 34.4533C79.9691 34.6796 80.0219 34.8747 80.1275 35.039C80.2361 35.2033 80.3774 35.3412 80.5513 35.4528C80.7282 35.5612 80.9176 35.6527 81.1194 35.7271C81.3213 35.7983 81.5153 35.8572 81.7016 35.9037L82.633 36.1454C82.9373 36.2198 83.2493 36.3205 83.5691 36.4476C83.8889 36.5747 84.1854 36.742 84.4586 36.9496C84.7318 37.1573 84.9523 37.4146 85.12 37.7213C85.2908 38.0282 85.3761 38.3954 85.3761 38.8232C85.3761 39.3624 85.2364 39.8412 84.957 40.2596C84.6807 40.678 84.2786 41.008 83.7508 41.2498C83.2261 41.4915 82.5911 41.6124 81.8459 41.6124C81.1318 41.6124 80.514 41.4993 79.9924 41.273C79.4708 41.0468 79.0625 40.726 78.7676 40.3107C78.4726 39.8924 78.3096 39.3964 78.2785 38.8232H79.7222C79.7502 39.1671 79.862 39.4538 80.0576 39.6831C80.2563 39.9094 80.5093 40.0783 80.8168 40.1899C81.1272 40.2983 81.4671 40.3526 81.8367 40.3526C82.2434 40.3526 82.6051 40.289 82.9218 40.1619C83.2416 40.0318 83.4931 39.852 83.6762 39.6227C83.8594 39.3903 83.9511 39.1191 83.9511 38.8092C83.9511 38.5272 83.8703 38.2963 83.7089 38.1165C83.5505 37.9368 83.3347 37.788 83.0615 37.6702C82.7914 37.5525 82.4855 37.4486 82.144 37.3587L81.017 37.052C80.2532 36.8443 79.6478 36.539 79.2007 36.1361C78.7567 35.7333 78.5347 35.2001 78.5347 34.537C78.5347 33.9884 78.6838 33.5096 78.9818 33.1005C79.2798 32.6914 79.6834 32.3737 80.1926 32.1476C80.7018 31.9181 81.2762 31.8035 81.9158 31.8035C82.5616 31.8035 83.1314 31.9166 83.6251 32.1429C84.1218 32.3691 84.5131 32.6806 84.7986 33.0772C85.0843 33.4708 85.2334 33.9233 85.2457 34.4347H83.8579ZM89.0658 41.6124C88.6125 41.6124 88.2027 41.5287 87.8363 41.3614C87.47 41.1909 87.1796 40.9446 86.9654 40.6222C86.7543 40.2999 86.6487 39.9047 86.6487 39.4368C86.6487 39.0338 86.7264 38.7023 86.8816 38.4419C87.0369 38.1816 87.2464 37.9755 87.5103 37.8237C87.7743 37.6718 88.0692 37.5572 88.3952 37.4796C88.7213 37.4021 89.0534 37.3432 89.3918 37.303C89.8203 37.2533 90.168 37.2131 90.435 37.1821C90.7021 37.1481 90.8961 37.0937 91.0172 37.0195C91.1383 36.9451 91.1988 36.8242 91.1988 36.6568V36.6242C91.1988 36.2183 91.084 35.9037 90.8543 35.6806C90.6276 35.4574 90.2891 35.3459 89.839 35.3459C89.3701 35.3459 89.0006 35.4496 88.7305 35.6573C88.4635 35.8619 88.2787 36.0897 88.1763 36.3407L86.8676 36.0432C87.0229 35.6092 87.2496 35.2591 87.5476 34.9925C87.8488 34.7229 88.1949 34.5277 88.5862 34.4068C88.9773 34.2828 89.3888 34.2208 89.8203 34.2208C90.1059 34.2208 90.4087 34.255 90.7285 34.3232C91.0514 34.3882 91.3525 34.5091 91.632 34.6858C91.9145 34.8624 92.1458 35.1149 92.3259 35.4435C92.5059 35.7689 92.596 36.1919 92.596 36.7126V41.4543H91.2361V40.4781H91.1803C91.0902 40.6579 90.9551 40.8345 90.775 41.008C90.5949 41.1816 90.3637 41.3257 90.0811 41.4404C89.7986 41.555 89.4602 41.6124 89.0658 41.6124ZM89.3686 40.4967C89.7536 40.4967 90.0827 40.4208 90.3559 40.2689C90.6322 40.117 90.8418 39.9187 90.9846 39.6739C91.1305 39.4259 91.2035 39.1609 91.2035 38.8789V37.9585C91.1538 38.008 91.0575 38.0545 90.9148 38.0979C90.775 38.1382 90.6151 38.1739 90.435 38.2048C90.255 38.2328 90.0796 38.2591 89.9088 38.2839C89.7381 38.3055 89.5952 38.3242 89.4804 38.3397C89.2102 38.3737 88.9633 38.4311 88.7398 38.5117C88.5194 38.5922 88.3425 38.7085 88.2089 38.8604C88.0785 39.0091 88.0133 39.2074 88.0133 39.4553C88.0133 39.7994 88.1406 40.0597 88.3952 40.2363C88.6498 40.4099 88.9743 40.4967 89.3686 40.4967ZM97.8552 34.3138V35.4296H93.8127V34.3138H97.8552ZM94.9211 41.4543V33.4863C94.9211 33.04 95.019 32.6697 95.2146 32.3753C95.4101 32.0777 95.6694 31.8562 95.9923 31.7105C96.3152 31.5617 96.6661 31.4873 97.0449 31.4873C97.3243 31.4873 97.5633 31.5106 97.762 31.5572C97.9607 31.6005 98.1082 31.6408 98.2045 31.678L97.8785 32.803C97.8133 32.7844 97.7294 32.7627 97.6269 32.7379C97.5245 32.71 97.4004 32.6961 97.2544 32.6961C96.916 32.6961 96.6738 32.7797 96.5279 32.9471C96.3851 33.1144 96.3136 33.3562 96.3136 33.6723V41.4543H94.9211ZM99.292 41.4543V34.3138H100.684V41.4543H99.292ZM99.9952 33.2121C99.7531 33.2121 99.545 33.1315 99.3711 32.9703C99.2004 32.806 99.115 32.6109 99.115 32.3846C99.115 32.1553 99.2004 31.96 99.3711 31.7988C99.545 31.6346 99.7531 31.5525 99.9952 31.5525C100.237 31.5525 100.444 31.6346 100.615 31.7988C100.788 31.96 100.875 32.1553 100.875 32.3846C100.875 32.6109 100.788 32.806 100.615 32.9703C100.444 33.1315 100.237 33.2121 99.9952 33.2121ZM105.641 41.5984C104.936 41.5984 104.329 41.4481 103.82 41.1476C103.314 40.8437 102.923 40.4176 102.646 39.8691C102.373 39.3175 102.236 38.6713 102.236 37.9306C102.236 37.1991 102.373 36.5545 102.646 35.9967C102.923 35.4388 103.308 35.0033 103.801 34.6904C104.298 34.3774 104.879 34.2208 105.543 34.2208C105.947 34.2208 106.338 34.2875 106.717 34.4208C107.096 34.554 107.435 34.7632 107.737 35.0483C108.038 35.3335 108.275 35.7038 108.449 36.1594C108.623 36.6119 108.71 37.1619 108.71 37.8097V38.3025H103.024V37.2611H107.346C107.346 36.8954 107.271 36.5715 107.122 36.2895C106.973 36.0045 106.763 35.7798 106.493 35.6155C106.226 35.4513 105.913 35.3691 105.552 35.3691C105.161 35.3691 104.82 35.4651 104.528 35.6573C104.239 35.8464 104.016 36.0943 103.857 36.4011C103.702 36.7048 103.624 37.0349 103.624 37.3913V38.2048C103.624 38.6821 103.708 39.0881 103.876 39.4228C104.047 39.7575 104.284 40.0132 104.588 40.1899C104.893 40.3634 105.248 40.4501 105.655 40.4501C105.919 40.4501 106.159 40.4131 106.377 40.3387C106.594 40.2611 106.782 40.1464 106.94 39.9946C107.099 39.8427 107.22 39.6553 107.304 39.4321L108.622 39.6692C108.516 40.0566 108.327 40.3959 108.053 40.6873C107.783 40.9755 107.443 41.2001 107.033 41.3614C106.627 41.5195 106.163 41.5984 105.641 41.5984ZM111.648 37.2146V41.4543H110.255V34.3138H111.592V35.476H111.68C111.844 35.0979 112.102 34.7942 112.453 34.5649C112.807 34.3355 113.253 34.2208 113.79 34.2208C114.277 34.2208 114.705 34.3232 115.071 34.5277C115.437 34.7291 115.721 35.0297 115.923 35.4296C116.124 35.8293 116.226 36.3237 116.226 36.9124V41.4543H114.833V37.0799C114.833 36.5623 114.698 36.1579 114.428 35.8665C114.158 35.5721 113.786 35.4249 113.314 35.4249C112.992 35.4249 112.705 35.4946 112.453 35.6341C112.205 35.7735 112.007 35.9781 111.862 36.2477C111.719 36.5143 111.648 36.8365 111.648 37.2146ZM121.432 34.3138V35.4296H117.525V34.3138H121.432ZM118.573 32.6031H119.966V39.3577C119.966 39.6274 120.006 39.8304 120.086 39.9668C120.167 40.1 120.272 40.1914 120.399 40.241C120.529 40.2875 120.671 40.3107 120.823 40.3107C120.934 40.3107 121.032 40.303 121.115 40.2875C121.2 40.272 121.265 40.2596 121.311 40.2503L121.562 41.3986C121.482 41.4296 121.367 41.4605 121.218 41.4915C121.07 41.5256 120.883 41.5442 120.66 41.5473C120.293 41.5535 119.952 41.4884 119.635 41.352C119.318 41.2156 119.062 41.005 118.866 40.7198C118.671 40.4347 118.573 40.0767 118.573 39.6459V32.6031Z" fill="white"/>
<path d="M182.916 28H142.083C140.932 28 140 28.9513 140 30.125V42.8751C140 44.0486 140.932 45 142.083 45H182.916C184.067 45 185 44.0486 185 42.8751V30.125C185 28.9513 184.067 28 182.916 28Z" fill="url(#paint3_linear_4655_4588)"/>
<path d="M148.892 41V33H152.095C152.684 33 153.175 33.0872 153.568 33.2617C153.961 33.4362 154.257 33.6784 154.455 33.9883C154.653 34.2956 154.751 34.6497 154.751 35.0508C154.751 35.3633 154.689 35.638 154.564 35.875C154.439 36.1094 154.267 36.3021 154.048 36.4531C153.832 36.6016 153.585 36.707 153.306 36.7695V36.8477C153.611 36.8607 153.896 36.9466 154.162 37.1055C154.43 37.2643 154.647 37.487 154.814 37.7734C154.981 38.0573 155.064 38.3958 155.064 38.7891C155.064 39.2135 154.958 39.5924 154.748 39.9258C154.539 40.2565 154.231 40.5182 153.822 40.7109C153.413 40.9036 152.909 41 152.31 41H148.892ZM150.583 39.6172H151.962C152.434 39.6172 152.778 39.5273 152.994 39.3477C153.21 39.1654 153.318 38.9232 153.318 38.6211C153.318 38.3997 153.264 38.2044 153.158 38.0352C153.051 37.8659 152.899 37.7331 152.701 37.6367C152.505 37.5404 152.272 37.4922 152.001 37.4922H150.583V39.6172ZM150.583 36.3477H151.837C152.069 36.3477 152.275 36.3073 152.455 36.2266C152.637 36.1432 152.78 36.026 152.884 35.875C152.991 35.724 153.044 35.543 153.044 35.332C153.044 35.043 152.942 34.8099 152.736 34.6328C152.533 34.4557 152.244 34.3672 151.869 34.3672H150.583V36.3477ZM156.165 41V33H161.555V34.3945H157.856V36.3008H161.278V37.6953H157.856V39.6055H161.571V41H156.165ZM162.595 34.3945V33H169.166V34.3945H166.716V41H165.044V34.3945H162.595ZM170.649 41H168.836L171.598 33H173.778L176.536 41H174.723L172.719 34.8281H172.657L170.649 41ZM170.536 37.8555H174.817V39.1758H170.536V37.8555Z" fill="#D7E0FE"/>
<defs>
<linearGradient id="paint0_linear_4655_4588" x1="-15.0061" y1="9" x2="52.9165" y2="8.50379" gradientUnits="userSpaceOnUse">
<stop offset="0.0885417" stop-color="#44BCF0"/>
<stop offset="0.567708" stop-color="#818CF8"/>
<stop offset="1" stop-color="#A099FF"/>
</linearGradient>
<linearGradient id="paint1_linear_4655_4588" x1="25.9328" y1="15.8652" x2="27.2445" y2="15.8614" gradientUnits="userSpaceOnUse">
<stop offset="0.0885417" stop-color="#44BCF0"/>
<stop offset="0.567708" stop-color="#818CF8"/>
<stop offset="1" stop-color="#A099FF"/>
</linearGradient>
<linearGradient id="paint2_linear_4655_4588" x1="-2.73565" y1="4.4224" x2="220.901" y2="-6.36062" gradientUnits="userSpaceOnUse">
<stop offset="0.0885417" stop-color="#44BCF0"/>
<stop offset="0.567708" stop-color="#818CF8"/>
<stop offset="1" stop-color="#A099FF"/>
</linearGradient>
<linearGradient id="paint3_linear_4655_4588" x1="124.552" y1="31.5063" x2="194.448" y2="30.157" gradientUnits="userSpaceOnUse">
<stop offset="0.0885417" stop-color="#44BCF0"/>
<stop offset="0.567708" stop-color="#818CF8"/>
<stop offset="1" stop-color="#A099FF"/>
</linearGradient>
</defs>
</svg>
